<svg class="rich-terminal" viewBox="0 0 1482 904.0" xmlns="http://www.w3.org/2000/svg">
    <!-- Generated with Rich https://www.textualize.io -->
    <style>

    @font-face {
        font-family: "Fira Code";
        src: local("FiraCode-Regular"),
                url("https://cdnjs.cloudflare.com/ajax/libs/firacode/6.2.0/woff2/FiraCode-Regular.woff2") format("woff2"),
                url("https://cdnjs.cloudflare.com/ajax/libs/firacode/6.2.0/woff/FiraCode-Regular.woff") format("woff");
        font-style: normal;
        font-weight: 400;
    }
    @font-face {
        font-family: "Fira Code";
        src: local("FiraCode-Bold"),
                url("https://cdnjs.cloudflare.com/ajax/libs/firacode/6.2.0/woff2/FiraCode-Bold.woff2") format("woff2"),
                url("https://cdnjs.cloudflare.com/ajax/libs/firacode/6.2.0/woff/FiraCode-Bold.woff") format("woff");
        font-style: bold;
        font-weight: 700;
    }

    .terminal-2784805407-matrix {
        font-family: Fira Code, monospace;
        font-size: 20px;
        line-height: 24.4px;
        font-variant-east-asian: full-width;
    }

    .terminal-2784805407-title {
        font-size: 18px;
        font-weight: bold;
        font-family: arial;
    }

    .terminal-2784805407-r1 { fill: #c5c8c6 }
.terminal-2784805407-r2 { fill: #e0e0e0 }
.terminal-2784805407-r3 { fill: #003054 }
.terminal-2784805407-r4 { fill: #1e1e1e }
.terminal-2784805407-r5 { fill: #121212 }
.terminal-2784805407-r6 { fill: #0178d4 }
.terminal-2784805407-r7 { fill: #797979 }
.terminal-2784805407-r8 { fill: #262626 }
.terminal-2784805407-r9 { fill: #e1f0ff;font-weight: bold }
.terminal-2784805407-r10 { fill: #e0e0e0;font-weight: bold }
.terminal-2784805407-r11 { fill: #101010;font-weight: bold }
.terminal-2784805407-r12 { fill: #211505 }
.terminal-2784805407-r13 { fill: #000000 }
.terminal-2784805407-r14 { fill: #ffa62b;font-weight: bold }
.terminal-2784805407-r15 { fill: #495259 }
    </style>

    <defs>
    <clipPath id="terminal-2784805407-clip-terminal">
      <rect x="0" y="0" width="1463.0" height="853.0" />
    </clipPath>
    <clipPath id="terminal-2784805407-line-0">
    <rect x="0" y="1.5" width="1464" height="24.65"/>
            </clipPath>
<clipPath id="terminal-2784805407-line-1">
    <rect x="0" y="25.9" width="1464" height="24.65"/>
            </clipPath>
<clipPath id="terminal-2784805407-line-2">
    <rect x="0" y="50.3" width="1464" height="24.65"/>
            </clipPath>
<clipPath id="terminal-2784805407-line-3">
    <rect x="0" y="74.7" width="1464" height="24.65"/>
            </clipPath>
<clipPath id="terminal-2784805407-line-4">
    <rect x="0" y="99.1" width="1464" height="24.65"/>
            </clipPath>
<clipPath id="terminal-2784805407-line-5">
    <rect x="0" y="123.5" width="1464" height="24.65"/>
            </clipPath>
<clipPath id="terminal-2784805407-line-6">
    <rect x="0" y="147.9" width="1464" height="24.65"/>
            </clipPath>
<clipPath id="terminal-2784805407-line-7">
    <rect x="0" y="172.3" width="1464" height="24.65"/>
            </clipPath>
<clipPath id="terminal-2784805407-line-8">
    <rect x="0" y="196.7" width="1464" height="24.65"/>
            </clipPath>
<clipPath id="terminal-2784805407-line-9">
    <rect x="0" y="221.1" width="1464" height="24.65"/>
            </clipPath>
<clipPath id="terminal-2784805407-line-10">
    <rect x="0" y="245.5" width="1464" height="24.65"/>
            </clipPath>
<clipPath id="terminal-2784805407-line-11">
    <rect x="0" y="269.9" width="1464" height="24.65"/>
            </clipPath>
<clipPath id="terminal-2784805407-line-12">
    <rect x="0" y="294.3" width="1464" height="24.65"/>
            </clipPath>
<clipPath id="terminal-2784805407-line-13">
    <rect x="0" y="318.7" width="1464" height="24.65"/>
            </clipPath>
<clipPath id="terminal-2784805407-line-14">
    <rect x="0" y="343.1" width="1464" height="24.65"/>
            </clipPath>
<clipPath id="terminal-2784805407-line-15">
    <rect x="0" y="367.5" width="1464" height="24.65"/>
            </clipPath>
<clipPath id="terminal-2784805407-line-16">
    <rect x="0" y="391.9" width="1464" height="24.65"/>
            </clipPath>
<clipPath id="terminal-2784805407-line-17">
    <rect x="0" y="416.3" width="1464" height="24.65"/>
            </clipPath>
<clipPath id="terminal-2784805407-line-18">
    <rect x="0" y="440.7" width="1464" height="24.65"/>
            </clipPath>
<clipPath id="terminal-2784805407-line-19">
    <rect x="0" y="465.1" width="1464" height="24.65"/>
            </clipPath>
<clipPath id="terminal-2784805407-line-20">
    <rect x="0" y="489.5" width="1464" height="24.65"/>
            </clipPath>
<clipPath id="terminal-2784805407-line-21">
    <rect x="0" y="513.9" width="1464" height="24.65"/>
            </clipPath>
<clipPath id="terminal-2784805407-line-22">
    <rect x="0" y="538.3" width="1464" height="24.65"/>
            </clipPath>
<clipPath id="terminal-2784805407-line-23">
    <rect x="0" y="562.7" width="1464" height="24.65"/>
            </clipPath>
<clipPath id="terminal-2784805407-line-24">
    <rect x="0" y="587.1" width="1464" height="24.65"/>
            </clipPath>
<clipPath id="terminal-2784805407-line-25">
    <rect x="0" y="611.5" width="1464" height="24.65"/>
            </clipPath>
<clipPath id="terminal-2784805407-line-26">
    <rect x="0" y="635.9" width="1464" height="24.65"/>
            </clipPath>
<clipPath id="terminal-2784805407-line-27">
    <rect x="0" y="660.3" width="1464" height="24.65"/>
            </clipPath>
<clipPath id="terminal-2784805407-line-28">
    <rect x="0" y="684.7" width="1464" height="24.65"/>
            </clipPath>
<clipPath id="terminal-2784805407-line-29">
    <rect x="0" y="709.1" width="1464" height="24.65"/>
            </clipPath>
<clipPath id="terminal-2784805407-line-30">
    <rect x="0" y="733.5" width="1464" height="24.65"/>
            </clipPath>
<clipPath id="terminal-2784805407-line-31">
    <rect x="0" y="757.9" width="1464" height="24.65"/>
            </clipPath>
<clipPath id="terminal-2784805407-line-32">
    <rect x="0" y="782.3" width="1464" height="24.65"/>
            </clipPath>
<clipPath id="terminal-2784805407-line-33">
    <rect x="0" y="806.7" width="1464" height="24.65"/>
            </clipPath>
    </defs>

    <rect fill="#292929" stroke="rgba(255,255,255,0.35)" stroke-width="1" x="1" y="1" width="1480" height="902" rx="8"/><text class="terminal-2784805407-title" fill="#c5c8c6" text-anchor="middle" x="740" y="27">devdash</text>
            <g transform="translate(26,22)">
            <circle cx="0" cy="0" r="7" fill="#ff5f57"/>
            <circle cx="22" cy="0" r="7" fill="#febc2e"/>
            <circle cx="44" cy="0" r="7" fill="#28c840"/>
            </g>
        
    <g transform="translate(9, 41)" clip-path="url(#terminal-2784805407-clip-terminal)">
    <rect fill="#242f38" x="0" y="1.5" width="12.2" height="24.65" shape-rendering="crispEdges"/><rect fill="#242f38" x="12.2" y="1.5" width="12.2" height="24.65" shape-rendering="crispEdges"/><rect fill="#242f38" x="24.4" y="1.5" width="61" height="24.65" shape-rendering="crispEdges"/><rect fill="#242f38" x="85.4" y="1.5" width="12.2" height="24.65" shape-rendering="crispEdges"/><rect fill="#242f38" x="97.6" y="1.5" width="561.2" height="24.65" shape-rendering="crispEdges"/><rect fill="#242f38" x="658.8" y="1.5" width="85.4" height="24.65" shape-rendering="crispEdges"/><rect fill="#242f38" x="744.2" y="1.5" width="573.4" height="24.65" shape-rendering="crispEdges"/><rect fill="#242f38" x="1317.6" y="1.5" width="12.2" height="24.65" shape-rendering="crispEdges"/><rect fill="#242f38" x="1329.8" y="1.5" width="97.6" height="24.65" shape-rendering="crispEdges"/><rect fill="#242f38" x="1427.4" y="1.5" width="12.2" height="24.65" shape-rendering="crispEdges"/><rect fill="#000000" x="1439.6" y="1.5" width="24.4" height="24.65" shape-rendering="crispEdges"/><rect fill="#1e1e1e" x="0" y="25.9" width="12.2" height="24.65" shape-rendering="crispEdges"/><rect fill="#0178d4" x="12.2" y="25.9" width="12.2" height="24.65" shape-rendering="crispEdges"/><rect fill="#272727" x="24.4" y="25.9" width="24.4" height="24.65" shape-rendering="crispEdges"/><rect fill="#272727" x="48.8" y="25.9" width="48.8" height="24.65" shape-rendering="crispEdges"/><rect fill="#e0e0e0" x="97.6" y="25.9" width="12.2" height="24.65" shape-rendering="crispEdges"/><rect fill="#272727" x="109.8" y="25.9" width="1281" height="24.65" shape-rendering="crispEdges"/><rect fill="#272727" x="1390.8" y="25.9" width="24.4" height="24.65" shape-rendering="crispEdges"/><rect fill="#1e1e1e" x="1415.2" y="25.9" width="12.2" height="24.65" shape-rendering="crispEdges"/><rect fill="#1e1e1e" x="1427.4" y="25.9" width="12.2" height="24.65" shape-rendering="crispEdges"/><rect fill="#003054" x="1439.6" y="25.9" width="24.4" height="24.65" shape-rendering="crispEdges"/><rect fill="#1e1e1e" x="0" y="50.3" width="12.2" height="24.65" shape-rendering="crispEdges"/><rect fill="#0178d4" x="12.2" y="50.3" width="12.2" height="24.65" shape-rendering="crispEdges"/><rect fill="#272727" x="24.4" y="50.3" width="1390.8" height="24.65" shape-rendering="crispEdges"/><rect fill="#1e1e1e" x="1415.2" y="50.3" width="12.2" height="24.65" shape-rendering="crispEdges"/><rect fill="#1e1e1e" x="1427.4" y="50.3" width="12.2" height="24.65" shape-rendering="crispEdges"/><rect fill="#003054" x="1439.6" y="50.3" width="24.4" height="24.65" shape-rendering="crispEdges"/><rect fill="#121212" x="0" y="74.7" width="12.2" height="24.65" shape-rendering="crispEdges"/><rect fill="#121212" x="12.2" y="74.7" width="85.4" height="24.65" shape-rendering="crispEdges"/><rect fill="#121212" x="97.6" y="74.7" width="12.2" height="24.65" shape-rendering="crispEdges"/><rect fill="#121212" x="109.8" y="74.7" width="12.2" height="24.65" shape-rendering="crispEdges"/><rect fill="#121212" x="122" y="74.7" width="122" height="24.65" shape-rendering="crispEdges"/><rect fill="#121212" x="244" y="74.7" width="12.2" height="24.65" shape-rendering="crispEdges"/><rect fill="#121212" x="256.2" y="74.7" width="1183.4" height="24.65" shape-rendering="crispEdges"/><rect fill="#003054" x="1439.6" y="74.7" width="24.4" height="24.65" shape-rendering="crispEdges"/><rect fill="#121212" x="0" y="99.1" width="12.2" height="24.65" shape-rendering="crispEdges"/><rect fill="#121212" x="12.2" y="99.1" width="85.4" height="24.65" shape-rendering="crispEdges"/><rect fill="#121212" x="97.6" y="99.1" width="12.2" height="24.65" shape-rendering="crispEdges"/><rect fill="#121212" x="109.8" y="99.1" width="1329.8" height="24.65" shape-rendering="crispEdges"/><rect fill="#003054" x="1439.6" y="99.1" width="24.4" height="24.65" shape-rendering="crispEdges"/><rect fill="#1e90ff" x="0" y="123.5" width="12.2" height="24.65" shape-rendering="crispEdges"/><rect fill="#1e90ff" x="12.2" y="123.5" width="231.8" height="24.65" shape-rendering="crispEdges"/><rect fill="#1e90ff" x="244" y="123.5" width="1183.4" height="24.65" shape-rendering="crispEdges"/><rect fill="#1e90ff" x="1427.4" y="123.5" width="12.2" height="24.65" shape-rendering="crispEdges"/><rect fill="#003054" x="1439.6" y="123.5" width="24.4" height="24.65" shape-rendering="crispEdges"/><rect fill="#242f38" x="0" y="147.9" width="61" height="24.65" shape-rendering="crispEdges"/><rect fill="#242f38" x="61" y="147.9" width="109.8" height="24.65" shape-rendering="crispEdges"/><rect fill="#242f38" x="170.8" y="147.9" width="109.8" height="24.65" shape-rendering="crispEdges"/><rect fill="#242f38" x="280.6" y="147.9" width="97.6" height="24.65" shape-rendering="crispEdges"/><rect fill="#242f38" x="378.2" y="147.9" width="61" height="24.65" shape-rendering="crispEdges"/><rect fill="#242f38" x="439.2" y="147.9" width="97.6" height="24.65" shape-rendering="crispEdges"/><rect fill="#242f38" x="536.8" y="147.9" width="134.2" height="24.65" shape-rendering="crispEdges"/><rect fill="#242f38" x="671" y="147.9" width="109.8" height="24.65" shape-rendering="crispEdges"/><rect fill="#242f38" x="780.8" y="147.9" width="658.8" height="24.65" shape-rendering="crispEdges"/><rect fill="#003054" x="1439.6" y="147.9" width="24.4" height="24.65" shape-rendering="crispEdges"/><rect fill="#1e1e1e" x="0" y="172.3" width="1439.6" height="24.65" shape-rendering="crispEdges"/><rect fill="#003054" x="1439.6" y="172.3" width="24.4" height="24.65" shape-rendering="crispEdges"/><rect fill="#1e1e1e" x="0" y="196.7" width="1439.6" height="24.65" shape-rendering="crispEdges"/><rect fill="#003054" x="1439.6" y="196.7" width="24.4" height="24.65" shape-rendering="crispEdges"/><rect fill="#1e1e1e" x="0" y="221.1" width="1439.6" height="24.65" shape-rendering="crispEdges"/><rect fill="#003054" x="1439.6" y="221.1" width="24.4" height="24.65" shape-rendering="crispEdges"/><rect fill="#1e1e1e" x="0" y="245.5" width="1439.6" height="24.65" shape-rendering="crispEdges"/><rect fill="#003054" x="1439.6" y="245.5" width="24.4" height="24.65" shape-rendering="crispEdges"/><rect fill="#1e1e1e" x="0" y="269.9" width="1439.6" height="24.65" shape-rendering="crispEdges"/><rect fill="#003054" x="1439.6" y="269.9" width="24.4" height="24.65" shape-rendering="crispEdges"/><rect fill="#1e1e1e" x="0" y="294.3" width="1439.6" height="24.65" shape-rendering="crispEdges"/><rect fill="#003054" x="1439.6" y="294.3" width="24.4" height="24.65" shape-rendering="crispEdges"/><rect fill="#1e1e1e" x="0" y="318.7" width="1439.6" height="24.65" shape-rendering="crispEdges"/><rect fill="#003054" x="1439.6" y="318.7" width="24.4" height="24.65" shape-rendering="crispEdges"/><rect fill="#1e1e1e" x="0" y="343.1" width="1439.6" height="24.65" shape-rendering="crispEdges"/><rect fill="#003054" x="1439.6" y="343.1" width="24.4" height="24.65" shape-rendering="crispEdges"/><rect fill="#1e1e1e" x="0" y="367.5" width="1439.6" height="24.65" shape-rendering="crispEdges"/><rect fill="#003054" x="1439.6" y="367.5" width="24.4" height="24.65" shape-rendering="crispEdges"/><rect fill="#1e1e1e" x="0" y="391.9" width="1439.6" height="24.65" shape-rendering="crispEdges"/><rect fill="#003054" x="1439.6" y="391.9" width="24.4" height="24.65" shape-rendering="crispEdges"/><rect fill="#1e1e1e" x="0" y="416.3" width="1439.6" height="24.65" shape-rendering="crispEdges"/><rect fill="#003054" x="1439.6" y="416.3" width="24.4" height="24.65" shape-rendering="crispEdges"/><rect fill="#1e1e1e" x="0" y="440.7" width="1439.6" height="24.65" shape-rendering="crispEdges"/><rect fill="#003054" x="1439.6" y="440.7" width="24.4" height="24.65" shape-rendering="crispEdges"/><rect fill="#1e1e1e" x="0" y="465.1" width="1439.6" height="24.65" shape-rendering="crispEdges"/><rect fill="#003054" x="1439.6" y="465.1" width="24.4" height="24.65" shape-rendering="crispEdges"/><rect fill="#808080" x="0" y="489.5" width="12.2" height="24.65" shape-rendering="crispEdges"/><rect fill="#808080" x="12.2" y="489.5" width="268.4" height="24.65" shape-rendering="crispEdges"/><rect fill="#808080" x="280.6" y="489.5" width="1146.8" height="24.65" shape-rendering="crispEdges"/><rect fill="#808080" x="1427.4" y="489.5" width="12.2" height="24.65" shape-rendering="crispEdges"/><rect fill="#003054" x="1439.6" y="489.5" width="24.4" height="24.65" shape-rendering="crispEdges"/><rect fill="#242f38" x="0" y="513.9" width="170.8" height="24.65" shape-rendering="crispEdges"/><rect fill="#242f38" x="170.8" y="513.9" width="244" height="24.65" shape-rendering="crispEdges"/><rect fill="#242f38" x="414.8" y="513.9" width="244" height="24.65" shape-rendering="crispEdges"/><rect fill="#242f38" x="658.8" y="513.9" width="280.6" height="24.65" shape-rendering="crispEdges"/><rect fill="#242f38" x="939.4" y="513.9" width="500.2" height="24.65" shape-rendering="crispEdges"/><rect fill="#003054" x="1439.6" y="513.9" width="24.4" height="24.65" shape-rendering="crispEdges"/><rect fill="#fea62b" x="0" y="538.3" width="170.8" height="24.65" shape-rendering="crispEdges"/><rect fill="#fea62b" x="170.8" y="538.3" width="244" height="24.65" shape-rendering="crispEdges"/><rect fill="#fea62b" x="414.8" y="538.3" width="244" height="24.65" shape-rendering="crispEdges"/><rect fill="#fea62b" x="658.8" y="538.3" width="280.6" height="24.65" shape-rendering="crispEdges"/><rect fill="#fea62b" x="939.4" y="538.3" width="500.2" height="24.65" shape-rendering="crispEdges"/><rect fill="#003054" x="1439.6" y="538.3" width="24.4" height="24.65" shape-rendering="crispEdges"/><rect fill="#1e1e1e" x="0" y="562.7" width="170.8" height="24.65" shape-rendering="crispEdges"/><rect fill="#1e1e1e" x="170.8" y="562.7" width="244" height="24.65" shape-rendering="crispEdges"/><rect fill="#1e1e1e" x="414.8" y="562.7" width="244" height="24.65" shape-rendering="crispEdges"/><rect fill="#1e1e1e" x="658.8" y="562.7" width="280.6" height="24.65" shape-rendering="crispEdges"/><rect fill="#1e1e1e" x="939.4" y="562.7" width="500.2" height="24.65" shape-rendering="crispEdges"/><rect fill="#003054" x="1439.6" y="562.7" width="24.4" height="24.65" shape-rendering="crispEdges"/><rect fill="#1e1e1e" x="0" y="587.1" width="170.8" height="24.65" shape-rendering="crispEdges"/><rect fill="#1e1e1e" x="170.8" y="587.1" width="244" height="24.65" shape-rendering="crispEdges"/><rect fill="#1e1e1e" x="414.8" y="587.1" width="244" height="24.65" shape-rendering="crispEdges"/><rect fill="#1e1e1e" x="658.8" y="587.1" width="280.6" height="24.65" shape-rendering="crispEdges"/><rect fill="#1e1e1e" x="939.4" y="587.1" width="500.2" height="24.65" shape-rendering="crispEdges"/><rect fill="#003054" x="1439.6" y="587.1" width="24.4" height="24.65" shape-rendering="crispEdges"/><rect fill="#1e1e1e" x="0" y="611.5" width="170.8" height="24.65" shape-rendering="crispEdges"/><rect fill="#1e1e1e" x="170.8" y="611.5" width="244" height="24.65" shape-rendering="crispEdges"/><rect fill="#1e1e1e" x="414.8" y="611.5" width="244" height="24.65" shape-rendering="crispEdges"/><rect fill="#1e1e1e" x="658.8" y="611.5" width="280.6" height="24.65" shape-rendering="crispEdges"/><rect fill="#1e1e1e" x="939.4" y="611.5" width="500.2" height="24.65" shape-rendering="crispEdges"/><rect fill="#003054" x="1439.6" y="611.5" width="24.4" height="24.65" shape-rendering="crispEdges"/><rect fill="#1e1e1e" x="0" y="635.9" width="170.8" height="24.65" shape-rendering="crispEdges"/><rect fill="#1e1e1e" x="170.8" y="635.9" width="244" height="24.65" shape-rendering="crispEdges"/><rect fill="#1e1e1e" x="414.8" y="635.9" width="244" height="24.65" shape-rendering="crispEdges"/><rect fill="#1e1e1e" x="658.8" y="635.9" width="280.6" height="24.65" shape-rendering="crispEdges"/><rect fill="#1e1e1e" x="939.4" y="635.9" width="500.2" height="24.65" shape-rendering="crispEdges"/><rect fill="#003054" x="1439.6" y="635.9" width="24.4" height="24.65" shape-rendering="crispEdges"/><rect fill="#1e1e1e" x="0" y="660.3" width="1439.6" height="24.65" shape-rendering="crispEdges"/><rect fill="#003054" x="1439.6" y="660.3" width="24.4" height="24.65" shape-rendering="crispEdges"/><rect fill="#1e1e1e" x="0" y="684.7" width="1439.6" height="24.65" shape-rendering="crispEdges"/><rect fill="#003054" x="1439.6" y="684.7" width="24.4" height="24.65" shape-rendering="crispEdges"/><rect fill="#1e1e1e" x="0" y="709.1" width="1439.6" height="24.65" shape-rendering="crispEdges"/><rect fill="#003054" x="1439.6" y="709.1" width="24.4" height="24.65" shape-rendering="crispEdges"/><rect fill="#1e1e1e" x="0" y="733.5" width="1439.6" height="24.65" shape-rendering="crispEdges"/><rect fill="#003054" x="1439.6" y="733.5" width="24.4" height="24.65" shape-rendering="crispEdges"/><rect fill="#1e1e1e" x="0" y="757.9" width="1439.6" height="24.65" shape-rendering="crispEdges"/><rect fill="#003054" x="1439.6" y="757.9" width="24.4" height="24.65" shape-rendering="crispEdges"/><rect fill="#1e1e1e" x="0" y="782.3" width="1439.6" height="24.65" shape-rendering="crispEdges"/><rect fill="#003054" x="1439.6" y="782.3" width="24.4" height="24.65" shape-rendering="crispEdges"/><rect fill="#1e1e1e" x="0" y="806.7" width="1439.6" height="24.65" shape-rendering="crispEdges"/><rect fill="#000000" x="1439.6" y="806.7" width="24.4" height="24.65" shape-rendering="crispEdges"/><rect fill="#242f38" x="0" y="831.1" width="36.6" height="24.65" shape-rendering="crispEdges"/><rect fill="#242f38" x="36.6" y="831.1" width="85.4" height="24.65" shape-rendering="crispEdges"/><rect fill="#242f38" x="122" y="831.1" width="1171.2" height="24.65" shape-rendering="crispEdges"/><rect fill="#242f38" x="1293.2" y="831.1" width="12.2" height="24.65" shape-rendering="crispEdges"/><rect fill="#242f38" x="1305.4" y="831.1" width="24.4" height="24.65" shape-rendering="crispEdges"/><rect fill="#242f38" x="1329.8" y="831.1" width="97.6" height="24.65" shape-rendering="crispEdges"/><rect fill="#242f38" x="1427.4" y="831.1" width="12.2" height="24.65" shape-rendering="crispEdges"/><rect fill="#000000" x="1439.6" y="831.1" width="24.4" height="24.65" shape-rendering="crispEdges"/>
    <g class="terminal-2784805407-matrix">
    <text class="terminal-2784805407-r2" x="12.2" y="20" textLength="12.2" clip-path="url(#terminal-2784805407-line-0)">⭘</text><text class="terminal-2784805407-r2" x="658.8" y="20" textLength="85.4" clip-path="url(#terminal-2784805407-line-0)">devdash</text><text class="terminal-2784805407-r3" x="1439.6" y="20" textLength="24.4" clip-path="url(#terminal-2784805407-line-0)">▁▁</text><text class="terminal-2784805407-r1" x="1464" y="20" textLength="12.2" clip-path="url(#terminal-2784805407-line-0)">
</text><text class="terminal-2784805407-r4" x="12.2" y="44.4" textLength="12.2" clip-path="url(#terminal-2784805407-line-1)">▊</text><text class="terminal-2784805407-r2" x="48.8" y="44.4" textLength="48.8" clip-path="url(#terminal-2784805407-line-1)">node</text><text class="terminal-2784805407-r6" x="1415.2" y="44.4" textLength="12.2" clip-path="url(#terminal-2784805407-line-1)">▎</text><text class="terminal-2784805407-r1" x="1464" y="44.4" textLength="12.2" clip-path="url(#terminal-2784805407-line-1)">
</text><text class="terminal-2784805407-r4" x="12.2" y="68.8" textLength="12.2" clip-path="url(#terminal-2784805407-line-2)">▊</text><text class="terminal-2784805407-r6" x="24.4" y="68.8" textLength="1390.8" clip-path="url(#terminal-2784805407-line-2)">▁▁▁▁▁▁▁▁▁▁▁▁▁▁▁▁▁▁▁▁▁▁▁▁▁▁▁▁▁▁▁▁▁▁▁▁▁▁▁▁▁▁▁▁▁▁▁▁▁▁▁▁▁▁▁▁▁▁▁▁▁▁▁▁▁▁▁▁▁▁▁▁▁▁▁▁▁▁▁▁▁▁▁▁▁▁▁▁▁▁▁▁▁▁▁▁▁▁▁▁▁▁▁▁▁▁▁▁▁▁▁▁▁▁</text><text class="terminal-2784805407-r6" x="1415.2" y="68.8" textLength="12.2" clip-path="url(#terminal-2784805407-line-2)">▎</text><text class="terminal-2784805407-r1" x="1464" y="68.8" textLength="12.2" clip-path="url(#terminal-2784805407-line-2)">
</text><text class="terminal-2784805407-r2" x="12.2" y="93.2" textLength="85.4" clip-path="url(#terminal-2784805407-line-3)">[1]&#160;Dev</text><text class="terminal-2784805407-r7" x="122" y="93.2" textLength="122" clip-path="url(#terminal-2784805407-line-3)">[2]&#160;System</text><text class="terminal-2784805407-r1" x="1464" y="93.2" textLength="12.2" clip-path="url(#terminal-2784805407-line-3)">
</text><text class="terminal-2784805407-r8" x="0" y="117.6" textLength="12.2" clip-path="url(#terminal-2784805407-line-4)">╸</text><text class="terminal-2784805407-r6" x="12.2" y="117.6" textLength="85.4" clip-path="url(#terminal-2784805407-line-4)">━━━━━━━</text><text class="terminal-2784805407-r8" x="97.6" y="117.6" textLength="12.2" clip-path="url(#terminal-2784805407-line-4)">╺</text><text class="terminal-2784805407-r8" x="109.8" y="117.6" textLength="1329.8" clip-path="url(#terminal-2784805407-line-4)">━━━━━━━━━━━━━━━━━━━━━━━━━━━━━━━━━━━━━━━━━━━━━━━━━━━━━━━━━━━━━━━━━━━━━━━━━━━━━━━━━━━━━━━━━━━━━━━━━━━━━━━━━━━━━</text><text class="terminal-2784805407-r1" x="1464" y="117.6" textLength="12.2" clip-path="url(#terminal-2784805407-line-4)">
</text><text class="terminal-2784805407-r9" x="12.2" y="142" textLength="231.8" clip-path="url(#terminal-2784805407-line-5)">&#160;Node&#160;Processes&#160;(0)</text><text class="terminal-2784805407-r1" x="1464" y="142" textLength="12.2" clip-path="url(#terminal-2784805407-line-5)">
</text><text class="terminal-2784805407-r10" x="0" y="166.4" textLength="61" clip-path="url(#terminal-2784805407-line-6)">&#160;PID&#160;</text><text class="terminal-2784805407-r10" x="61" y="166.4" textLength="109.8" clip-path="url(#terminal-2784805407-line-6)">&#160;Project&#160;</text><text class="terminal-2784805407-r10" x="170.8" y="166.4" textLength="109.8" clip-path="url(#terminal-2784805407-line-6)">&#160;Port(s)&#160;</text><text class="terminal-2784805407-r10" x="280.6" y="166.4" textLength="97.6" clip-path="url(#terminal-2784805407-line-6)">&#160;Memory&#160;</text><text class="terminal-2784805407-r10" x="378.2" y="166.4" textLength="61" clip-path="url(#terminal-2784805407-line-6)">&#160;CPU&#160;</text><text class="terminal-2784805407-r10" x="439.2" y="166.4" textLength="97.6" clip-path="url(#terminal-2784805407-line-6)">&#160;Uptime&#160;</text><text class="terminal-2784805407-r10" x="536.8" y="166.4" textLength="134.2" clip-path="url(#terminal-2784805407-line-6)">&#160;Directory&#160;</text><text class="terminal-2784805407-r10" x="671" y="166.4" textLength="109.8" clip-path="url(#terminal-2784805407-line-6)">&#160;Command&#160;</text><text class="terminal-2784805407-r1" x="1464" y="166.4" textLength="12.2" clip-path="url(#terminal-2784805407-line-6)">
</text><text class="terminal-2784805407-r1" x="1464" y="190.8" textLength="12.2" clip-path="url(#terminal-2784805407-line-7)">
</text><text class="terminal-2784805407-r1" x="1464" y="215.2" textLength="12.2" clip-path="url(#terminal-2784805407-line-8)">
</text><text class="terminal-2784805407-r1" x="1464" y="239.6" textLength="12.2" clip-path="url(#terminal-2784805407-line-9)">
</text><text class="terminal-2784805407-r1" x="1464" y="264" textLength="12.2" clip-path="url(#terminal-2784805407-line-10)">
</text><text class="terminal-2784805407-r1" x="1464" y="288.4" textLength="12.2" clip-path="url(#terminal-2784805407-line-11)">
</text><text class="terminal-2784805407-r1" x="1464" y="312.8" textLength="12.2" clip-path="url(#terminal-2784805407-line-12)">
</text><text class="terminal-2784805407-r1" x="1464" y="337.2" textLength="12.2" clip-path="url(#terminal-2784805407-line-13)">
</text><text class="terminal-2784805407-r1" x="1464" y="361.6" textLength="12.2" clip-path="url(#terminal-2784805407-line-14)">
</text><text class="terminal-2784805407-r1" x="1464" y="386" textLength="12.2" clip-path="url(#terminal-2784805407-line-15)">
</text><text class="terminal-2784805407-r1" x="1464" y="410.4" textLength="12.2" clip-path="url(#terminal-2784805407-line-16)">
</text><text class="terminal-2784805407-r1" x="1464" y="434.8" textLength="12.2" clip-path="url(#terminal-2784805407-line-17)">
</text><text class="terminal-2784805407-r1" x="1464" y="459.2" textLength="12.2" clip-path="url(#terminal-2784805407-line-18)">
</text><text class="terminal-2784805407-r1" x="1464" y="483.6" textLength="12.2" clip-path="url(#terminal-2784805407-line-19)">
</text><text class="terminal-2784805407-r11" x="12.2" y="508" textLength="268.4" clip-path="url(#terminal-2784805407-line-20)">&#160;Docker&#160;Containers&#160;(5)</text><text class="terminal-2784805407-r1" x="1464" y="508" textLength="12.2" clip-path="url(#terminal-2784805407-line-20)">
</text><text class="terminal-2784805407-r10" x="0" y="532.4" textLength="170.8" clip-path="url(#terminal-2784805407-line-21)">&#160;ID&#160;&#160;&#160;&#160;&#160;&#160;&#160;&#160;&#160;&#160;&#160;</text><text class="terminal-2784805407-r10" x="170.8" y="532.4" textLength="244" clip-path="url(#terminal-2784805407-line-21)">&#160;Name&#160;&#160;&#160;&#160;&#160;&#160;&#160;&#160;&#160;&#160;&#160;&#160;&#160;&#160;&#160;</text><text class="terminal-2784805407-r10" x="414.8" y="532.4" textLength="244" clip-path="url(#terminal-2784805407-line-21)">&#160;Image&#160;&#160;&#160;&#160;&#160;&#160;&#160;&#160;&#160;&#160;&#160;&#160;&#160;&#160;</text><text class="terminal-2784805407-r10" x="658.8" y="532.4" textLength="280.6" clip-path="url(#terminal-2784805407-line-21)">&#160;Status&#160;&#160;&#160;&#160;&#160;&#160;&#160;&#160;&#160;&#160;&#160;&#160;&#160;&#160;&#160;&#160;</text><text class="terminal-2784805407-r10" x="939.4" y="532.4" textLength="500.2" clip-path="url(#terminal-2784805407-line-21)">&#160;Ports&#160;&#160;&#160;&#160;&#160;&#160;&#160;&#160;&#160;&#160;&#160;&#160;&#160;&#160;&#160;&#160;&#160;&#160;&#160;&#160;&#160;&#160;&#160;&#160;&#160;&#160;&#160;&#160;&#160;&#160;&#160;&#160;&#160;&#160;&#160;</text><text class="terminal-2784805407-r1" x="1464" y="532.4" textLength="12.2" clip-path="url(#terminal-2784805407-line-21)">
</text><text class="terminal-2784805407-r12" x="0" y="556.8" textLength="170.8" clip-path="url(#terminal-2784805407-line-22)">&#160;ec9a287db3d3&#160;</text><text class="terminal-2784805407-r12" x="170.8" y="556.8" textLength="244" clip-path="url(#terminal-2784805407-line-22)">&#160;amora_postgres_dev&#160;</text><text class="terminal-2784805407-r12" x="414.8" y="556.8" textLength="244" clip-path="url(#terminal-2784805407-line-22)">&#160;postgres:16-alpine&#160;</text><text class="terminal-2784805407-r12" x="658.8" y="556.8" textLength="280.6" clip-path="url(#terminal-2784805407-line-22)">&#160;Up&#160;12&#160;hours&#160;(healthy)&#160;</text><text class="terminal-2784805407-r12" x="939.4" y="556.8" textLength="500.2" clip-path="url(#terminal-2784805407-line-22)">&#160;0.0.0.0:5432-&gt;5432/tcp,&#160;[::]:5432-&gt;5432/</text><text class="terminal-2784805407-r1" x="1464" y="556.8" textLength="12.2" clip-path="url(#terminal-2784805407-line-22)">
</text><text class="terminal-2784805407-r2" x="0" y="581.2" textLength="170.8" clip-path="url(#terminal-2784805407-line-23)">&#160;9c3817600aa5&#160;</text><text class="terminal-2784805407-r2" x="170.8" y="581.2" textLength="244" clip-path="url(#terminal-2784805407-line-23)">&#160;bavrk-db&#160;&#160;&#160;&#160;&#160;&#160;&#160;&#160;&#160;&#160;&#160;</text><text class="terminal-2784805407-r2" x="414.8" y="581.2" textLength="244" clip-path="url(#terminal-2784805407-line-23)">&#160;postgres:16-alpine&#160;</text><text class="terminal-2784805407-r2" x="658.8" y="581.2" textLength="280.6" clip-path="url(#terminal-2784805407-line-23)">&#160;Up&#160;2&#160;weeks&#160;(healthy)&#160;&#160;</text><text class="terminal-2784805407-r2" x="939.4" y="581.2" textLength="500.2" clip-path="url(#terminal-2784805407-line-23)">&#160;127.0.0.1:5544-&gt;5432/tcp&#160;&#160;&#160;&#160;&#160;&#160;&#160;&#160;&#160;&#160;&#160;&#160;&#160;&#160;&#160;&#160;</text><text class="terminal-2784805407-r1" x="1464" y="581.2" textLength="12.2" clip-path="url(#terminal-2784805407-line-23)">
</text><text class="terminal-2784805407-r2" x="0" y="605.6" textLength="170.8" clip-path="url(#terminal-2784805407-line-24)">&#160;034b8c5f6b8e&#160;</text><text class="terminal-2784805407-r2" x="170.8" y="605.6" textLength="244" clip-path="url(#terminal-2784805407-line-24)">&#160;docker-postgres-1&#160;&#160;</text><text class="terminal-2784805407-r2" x="414.8" y="605.6" textLength="244" clip-path="url(#terminal-2784805407-line-24)">&#160;postgres:16-alpine&#160;</text><text class="terminal-2784805407-r2" x="658.8" y="605.6" textLength="280.6" clip-path="url(#terminal-2784805407-line-24)">&#160;Up&#160;11&#160;days&#160;&#160;&#160;&#160;&#160;&#160;&#160;&#160;&#160;&#160;&#160;&#160;</text><text class="terminal-2784805407-r2" x="939.4" y="605.6" textLength="500.2" clip-path="url(#terminal-2784805407-line-24)">&#160;0.0.0.0:5434-&gt;5432/tcp,&#160;[::]:5434-&gt;5432/</text><text class="terminal-2784805407-r1" x="1464" y="605.6" textLength="12.2" clip-path="url(#terminal-2784805407-line-24)">
</text><text class="terminal-2784805407-r2" x="0" y="630" textLength="170.8" clip-path="url(#terminal-2784805407-line-25)">&#160;9a1623fe5da4&#160;</text><text class="terminal-2784805407-r2" x="170.8" y="630" textLength="244" clip-path="url(#terminal-2784805407-line-25)">&#160;docker-redis-1&#160;&#160;&#160;&#160;&#160;</text><text class="terminal-2784805407-r2" x="414.8" y="630" textLength="244" clip-path="url(#terminal-2784805407-line-25)">&#160;redis:7-alpine&#160;&#160;&#160;&#160;&#160;</text><text class="terminal-2784805407-r2" x="658.8" y="630" textLength="280.6" clip-path="url(#terminal-2784805407-line-25)">&#160;Up&#160;11&#160;days&#160;&#160;&#160;&#160;&#160;&#160;&#160;&#160;&#160;&#160;&#160;&#160;</text><text class="terminal-2784805407-r2" x="939.4" y="630" textLength="500.2" clip-path="url(#terminal-2784805407-line-25)">&#160;0.0.0.0:6379-&gt;6379/tcp,&#160;[::]:6379-&gt;6379/</text><text class="terminal-2784805407-r1" x="1464" y="630" textLength="12.2" clip-path="url(#terminal-2784805407-line-25)">
</text><text class="terminal-2784805407-r2" x="0" y="654.4" textLength="170.8" clip-path="url(#terminal-2784805407-line-26)">&#160;afdf4fb07a9f&#160;</text><text class="terminal-2784805407-r2" x="170.8" y="654.4" textLength="244" clip-path="url(#terminal-2784805407-line-26)">&#160;itbite-postgres&#160;&#160;&#160;&#160;</text><text class="terminal-2784805407-r2" x="414.8" y="654.4" textLength="244" clip-path="url(#terminal-2784805407-line-26)">&#160;postgres:16-alpine&#160;</text><text class="terminal-2784805407-r2" x="658.8" y="654.4" textLength="280.6" clip-path="url(#terminal-2784805407-line-26)">&#160;Up&#160;2&#160;weeks&#160;(healthy)&#160;&#160;</text><text class="terminal-2784805407-r2" x="939.4" y="654.4" textLength="500.2" clip-path="url(#terminal-2784805407-line-26)">&#160;0.0.0.0:5433-&gt;5432/tcp,&#160;[::]:5433-&gt;5432/</text><text class="terminal-2784805407-r1" x="1464" y="654.4" textLength="12.2" clip-path="url(#terminal-2784805407-line-26)">
</text><text class="terminal-2784805407-r1" x="1464" y="678.8" textLength="12.2" clip-path="url(#terminal-2784805407-line-27)">
</text><text class="terminal-2784805407-r1" x="1464" y="703.2" textLength="12.2" clip-path="url(#terminal-2784805407-line-28)">
</text><text class="terminal-2784805407-r1" x="1464" y="727.6" textLength="12.2" clip-path="url(#terminal-2784805407-line-29)">
</text><text class="terminal-2784805407-r1" x="1464" y="752" textLength="12.2" clip-path="url(#terminal-2784805407-line-30)">
</text><text class="terminal-2784805407-r1" x="1464" y="776.4" textLength="12.2" clip-path="url(#terminal-2784805407-line-31)">
</text><text class="terminal-2784805407-r13" x="1439.6" y="800.8" textLength="24.4" clip-path="url(#terminal-2784805407-line-32)">▅▅</text><text class="terminal-2784805407-r1" x="1464" y="800.8" textLength="12.2" clip-path="url(#terminal-2784805407-line-32)">
</text><text class="terminal-2784805407-r1" x="1464" y="825.2" textLength="12.2" clip-path="url(#terminal-2784805407-line-33)">
</text><text class="terminal-2784805407-r14" x="0" y="849.6" textLength="36.6" clip-path="url(#terminal-2784805407-line-34)">&#160;/&#160;</text><text class="terminal-2784805407-r2" x="36.6" y="849.6" textLength="85.4" clip-path="url(#terminal-2784805407-line-34)">Filter&#160;</text><text class="terminal-2784805407-r15" x="1293.2" y="849.6" textLength="12.2" clip-path="url(#terminal-2784805407-line-34)">▏</text><text class="terminal-2784805407-r14" x="1305.4" y="849.6" textLength="24.4" clip-path="url(#terminal-2784805407-line-34)">^p</text><text class="terminal-2784805407-r2" x="1329.8" y="849.6" textLength="97.6" clip-path="url(#terminal-2784805407-line-34)">&#160;palette</text>
    </g>
    </g>
</svg>
